<?xml version="1.0" standalone="no"?>
<!DOCTYPE svg PUBLIC "-//W3C//DTD SVG 20010904//EN"
 "http://www.w3.org/TR/2001/REC-SVG-20010904/DTD/svg10.dtd">
<svg version="1.0" xmlns="http://www.w3.org/2000/svg"
 width="303.000000pt" height="229.000000pt" viewBox="0 0 303.000000 229.000000"
 preserveAspectRatio="xMidYMid meet">

<g transform="translate(0.000000,229.000000) scale(0.100000,-0.100000)"
fill="#384DA1" stroke="none">
<path d="M2078 2264 c-56 -30 -73 -104 -38 -162 60 -98 214 -53 214 63 0 91
-94 144 -176 99z"/>
<path d="M1684 2234 c-40 -19 -64 -62 -64 -114 0 -34 6 -48 33 -75 67 -67 162
-52 199 32 17 40 18 49 6 86 -23 74 -102 107 -174 71z"/>
<path d="M2424 2106 c-28 -28 -34 -42 -34 -76 0 -34 6 -48 34 -76 28 -28 42
-34 76 -34 34 0 48 6 76 34 28 28 34 42 34 76 0 34 -6 48 -34 76 -28 28 -42
34 -76 34 -34 0 -48 -6 -76 -34z"/>
<path d="M1355 2040 c-68 -28 -96 -127 -53 -190 85 -126 281 -25 226 118 -25
65 -107 100 -173 72z"/>
<path d="M755 1986 c-17 -7 -44 -28 -59 -47 -25 -30 -28 -39 -24 -91 3 -47 10
-64 33 -88 79 -83 220 -44 241 67 20 109 -94 204 -191 159z"/>
<path d="M1851 1954 c-13 -9 -30 -32 -38 -51 -27 -67 23 -143 94 -143 69 0
113 43 113 111 0 47 -56 99 -107 99 -21 0 -49 -7 -62 -16z"/>
<path d="M2243 1905 c-69 -29 -80 -120 -21 -170 26 -22 39 -26 71 -22 74 10
111 73 83 140 -22 53 -78 75 -133 52z"/>
<path d="M371 1878 c-105 -54 -108 -198 -6 -255 48 -27 88 -29 135 -5 49 24
80 75 80 131 0 115 -108 182 -209 129z"/>
<path d="M2699 1831 c-23 -24 -29 -38 -29 -73 0 -51 18 -81 59 -98 73 -30 146
19 146 97 0 38 -5 49 -33 74 -45 41 -102 41 -143 0z"/>
<path d="M1093 1819 c-72 -46 -82 -145 -20 -206 85 -86 227 -28 227 92 0 106
-118 171 -207 114z"/>
<path d="M1611 1737 c-95 -55 -40 -206 67 -182 73 16 103 109 51 160 -30 31
-85 41 -118 22z"/>
<path d="M2053 1702 c-32 -5 -73 -58 -73 -94 0 -44 48 -88 95 -88 47 0 95 44
95 88 0 57 -57 103 -117 94z"/>
<path d="M2473 1675 c-32 -23 -48 -79 -33 -116 17 -39 46 -59 90 -59 44 0 73
20 90 59 26 63 -20 131 -87 131 -21 0 -48 -7 -60 -15z"/>
<path d="M623 1590 c-45 -27 -63 -87 -40 -135 18 -37 69 -75 100 -75 34 0 88
32 102 61 55 106 -60 212 -162 149z"/>
<path d="M155 1588 c-69 -25 -110 -87 -103 -158 8 -84 71 -140 156 -140 43 0
93 28 126 72 27 37 27 113 0 158 -34 59 -117 91 -179 68z"/>
<path d="M1003 1494 c-46 -23 -69 -76 -54 -126 13 -43 58 -78 101 -78 14 0 39
9 57 20 70 42 63 154 -11 185 -44 19 -53 18 -93 -1z"/>
<path d="M1447 1499 c-54 -31 -52 -126 4 -154 42 -22 67 -18 100 14 31 32 39
82 16 112 -28 36 -84 49 -120 28z"/>
<path d="M2300 1477 c-55 -28 -62 -108 -13 -147 30 -24 63 -25 102 -5 33 16
41 33 41 80 0 25 -8 40 -31 59 -34 29 -61 32 -99 13z"/>
<path d="M1894 1470 c-12 -5 -29 -19 -38 -32 -51 -72 33 -165 112 -124 33 17
42 34 42 80 0 55 -65 97 -116 76z"/>
<path d="M2849 1451 c-40 -40 -40 -89 0 -133 76 -85 209 9 157 110 -32 61
-108 72 -157 23z"/>
<path d="M2604 1310 c-53 -21 -70 -97 -34 -143 43 -55 136 -40 159 25 28 80
-46 150 -125 118z"/>
<path d="M535 1255 c-52 -51 -16 -145 54 -145 43 0 60 9 76 41 22 42 18 67
-14 100 -38 37 -82 39 -116 4z"/>
<path d="M2204 1250 c-55 -22 -70 -95 -29 -135 51 -52 145 -16 145 54 0 57
-66 102 -116 81z"/>
<path d="M1351 1224 c-27 -35 -26 -66 2 -100 17 -20 33 -27 57 -27 24 0 40 7
57 27 28 34 29 65 2 100 -29 37 -89 37 -118 0z"/>
<path d="M1771 1214 c-37 -47 -24 -102 29 -124 24 -10 36 -10 60 0 53 22 66
77 29 124 -29 37 -89 37 -118 0z"/>
<path d="M937 1218 c-43 -33 -40 -100 5 -132 80 -56 172 50 103 119 -27 28
-80 34 -108 13z"/>
<path d="M90 1178 c-111 -57 -119 -195 -16 -272 20 -16 42 -21 86 -21 63 0 95
16 134 69 29 39 29 133 0 172 -53 72 -128 91 -204 52z"/>
<path d="M2869 1041 c-46 -46 -35 -117 22 -147 47 -24 104 -5 126 40 46 97
-72 182 -148 107z"/>
<path d="M2135 1019 c-31 -18 -45 -40 -45 -73 1 -35 15 -57 48 -75 72 -38 147
64 95 128 -22 25 -71 35 -98 20z"/>
<path d="M2503 1004 c-22 -22 -25 -32 -20 -67 7 -50 36 -77 83 -77 76 0 115
90 63 146 -32 34 -91 33 -126 -2z"/>
<path d="M1342 1008 c-37 -18 -45 -76 -15 -110 32 -36 105 -15 114 32 6 30
-11 67 -36 78 -30 14 -33 14 -63 0z"/>
<path d="M1720 1000 c-30 -30 -27 -83 6 -109 15 -12 38 -21 51 -21 32 0 73 42
73 75 0 61 -87 98 -130 55z"/>
<path d="M931 984 c-12 -15 -21 -33 -21 -41 0 -21 46 -63 70 -63 53 0 81 84
38 114 -33 23 -64 19 -87 -10z"/>
<path d="M533 974 c-15 -24 -15 -29 -2 -53 20 -36 71 -41 93 -9 21 29 20 51
-2 71 -28 26 -69 21 -89 -9z"/>
<path d="M70 319 l0 -311 143 4 c129 3 146 6 187 28 59 33 90 80 90 137 0 69
-40 129 -103 152 l-28 11 30 26 c56 47 65 141 19 199 -39 50 -90 65 -220 65
l-118 0 0 -311z m251 202 c28 -34 25 -92 -6 -121 -20 -19 -40 -25 -90 -28
l-65 -4 0 92 0 92 71 -4 c60 -3 74 -8 90 -27z m33 -257 c36 -23 51 -67 36
-104 -21 -50 -44 -60 -142 -60 l-88 0 0 96 0 97 85 -7 c50 -3 96 -13 109 -22z"/>
<path d="M630 407 c0 -220 0 -224 26 -275 41 -83 117 -123 234 -124 86 -1 142
17 195 64 68 60 75 93 75 345 l0 213 -44 0 -45 0 -3 -223 c-3 -252 -6 -260
-80 -298 -33 -17 -55 -20 -108 -17 -82 4 -133 37 -150 96 -5 20 -10 128 -10
240 l0 202 -45 0 -45 0 0 -223z"/>
<path d="M1350 320 l0 -310 186 0 185 0 -3 42 -3 43 -137 3 -138 3 0 264 0
265 -45 0 -45 0 0 -310z"/>
<path d="M1812 408 c4 -238 11 -273 61 -326 92 -99 324 -99 413 0 55 60 58 77
62 321 l4 227 -45 0 -45 0 -4 -217 c-3 -176 -7 -224 -20 -248 -48 -91 -222
-103 -298 -21 -25 28 -25 28 -28 257 l-3 229 -51 0 -50 0 4 -222z"/>
<path d="M2470 590 l0 -40 105 0 105 0 0 -270 0 -270 45 0 45 0 0 270 0 270
110 0 110 0 0 40 0 40 -260 0 -260 0 0 -40z"/>
</g>
</svg>
